# xmcd CD database file
#
# Track frame offsets:
#	150
#	14480
#	31710
#	50623
#	69387
#	84272
#	98577
#	114952
#	131825
#	146380
#	159505
#	178014
#	196500
#	208232
#	225246
#	238150
#	252347
#
# Disc length: 3575 seconds
#
# Revision: 13
# Processed by: cddbd v1.5.1PL2 Copyright (c) Steve Scherf et al.
# Submitted via: CDex 1.51
#
DISCID=d70df511
DTITLE=ROGERS - KENNY - Hanky's Edition CD 1
DYEAR=2006
DGENRE=Country
TTITLE0=KENNY ROGERS - Daytime Friends
TTITLE1=KENNY ROGERS - We've Got Tonight (With Sheena Easton)
TTITLE2=KENNY ROGERS - She Believes In Me
TTITLE3=KENNY ROGERS - Homeland
TTITLE4=KENNY ROGERS - Share Your Love With Me
TTITLE5=KENNY ROGERS - Slow Dance More
TTITLE6=KENNY ROGERS - Love Will Turn You Around
TTITLE7=KENNY ROGERS - Buy Me A Rose (feat. Alison Krauss And Billy Dean)
TTITLE8=KENNY ROGERS - The Greatest
TTITLE9=KENNY ROGERS - Ruby, Dont' Take Your Love To Town
TTITLE10=KENNY ROGERS - Morning Desire
TTITLE11=KENNY ROGERS - Handprints On The Wall
TTITLE12=KENNY ROGERS - Me And Bobby McGee
TTITLE13=KENNY ROGERS - One Life
TTITLE14=KENNY ROGERS - Love Or Something Like It
TTITLE15=KENNY ROGERS - All I Ever Need Is You (With Dottie West)
TTITLE16=KENNY ROGERS - Someone Is Me
EXTD=YEAR: 2006
EXTT0=
EXTT1=
EXTT2=
EXTT3=
EXTT4=
EXTT5=
EXTT6=
EXTT7=
EXTT8=
EXTT9=
EXTT10=
EXTT11=
EXTT12=
EXTT13=
EXTT14=
EXTT15=
EXTT16=
PLAYORDER=
